# xmcd
#
# Track frame offsets: 
#        150
#        19037
#        38914
#        63195
#        84380
#        103442
#        124558
#        148414
#        161588
#        180133
#        196795
#
# Disc length: 3025 seconds
#
# Revision: 1
# Processed by: cddbd v1.5.2PL0 Copyright (c) Steve Scherf et al.
# Submitted via: ExactAudioCopyFreeDBPlugin 1.0
#
DISCID=8b0bcf0b
DTITLE=Niko and Tapsa - Yhtä
DYEAR=2011
DGENRE=Hip-Hop
TTITLE0=Yhtä
TTITLE1=Pysy Tuoreena
TTITLE2=Neljäs Ulottuvuus (feat. Puppa J)
TTITLE3=Sivupoluilla (feat. Asa Masa)
TTITLE4=Kosminen Nainen
TTITLE5=Täydellistä Soundia (feat. Saurus)
TTITLE6=Haamuräpin Lait (feat. Hyzä)
TTITLE7=Ohikiitävää
TTITLE8=Pelot Syö (feat. Raappana)
TTITLE9=Tanssit
TTITLE10=Ihmeitä
EXTD=
EXTT0=
EXTT1=
EXTT2=
EXTT3=
EXTT4=
EXTT5=
EXTT6=
EXTT7=
EXTT8=
EXTT9=
EXTT10=
PLAYORDER=
